<?xml version="1.0" encoding="UTF-8" standalone="no"?>
<!DOCTYPE svg PUBLIC "-//W3C//DTD SVG 1.1//EN" "http://www.w3.org/Graphics/SVG/1.1/DTD/svg11.dtd">
<svg width="100%" height="100%" viewBox="0 0 4904 1734" version="1.1" xmlns="http://www.w3.org/2000/svg" xmlns:xlink="http://www.w3.org/1999/xlink" xml:space="preserve" xmlns:serif="http://www.serif.com/" style="fill-rule:evenodd;clip-rule:evenodd;stroke-linejoin:round;stroke-miterlimit:2;">
    <g transform="matrix(1,0,0,1,-401.885852,-435.883981)">
        <g transform="matrix(1,0,0,1,-715,-1352)">
            <g transform="matrix(38.773224,0,0,38.773224,-90750.219793,-82909.451767)">
                <g>
                    <g transform="matrix(1,0,0,1,2370.194,2215.742)">
                        <path d="M23.95,-27.15C24.783,-26.683 25.542,-26.092 26.225,-25.375C26.908,-24.658 27.417,-23.875 27.75,-23.025C28.083,-22.175 28.208,-21.267 28.125,-20.3C28.042,-19.333 27.683,-18.367 27.05,-17.4C26.417,-16.433 25.575,-15.475 24.525,-14.525C23.475,-13.575 22.45,-12.717 21.45,-11.95C20.45,-11.183 19.575,-10.558 18.825,-10.075C18.075,-9.592 17.683,-9.333 17.65,-9.3C18.083,-9.4 18.533,-9.45 19,-9.45C19.4,-9.45 19.842,-9.383 20.325,-9.25C20.808,-9.117 21.317,-8.867 21.85,-8.5C22.85,-7.733 23.617,-6.792 24.15,-5.675C24.683,-4.558 24.667,-3.3 24.1,-1.9C23.8,-1.2 23.275,-0.45 22.525,0.35C21.775,1.15 20.808,1.858 19.625,2.475C18.442,3.092 17.05,3.558 15.45,3.875C13.85,4.192 12.05,4.25 10.05,4.05C8.083,3.85 6.517,3.392 5.35,2.675C4.183,1.958 3.292,1.167 2.675,0.3C2.058,-0.567 1.65,-1.408 1.45,-2.225C1.25,-3.042 1.15,-3.683 1.15,-4.15C1.15,-4.75 1.183,-5.267 1.25,-5.7C1.317,-6.067 1.4,-6.383 1.5,-6.65C1.6,-6.917 1.75,-6.983 1.95,-6.85C2.317,-6.617 2.642,-6.217 2.925,-5.65C3.208,-5.083 3.333,-4.433 3.3,-3.7C3.3,-3.333 3.375,-2.85 3.525,-2.25C3.675,-1.65 3.992,-1.033 4.475,-0.4C4.958,0.233 5.65,0.817 6.55,1.35C7.45,1.883 8.633,2.267 10.1,2.5C11.533,2.733 12.933,2.642 14.3,2.225C15.667,1.808 16.892,1.25 17.975,0.55C19.058,-0.15 19.958,-0.908 20.675,-1.725C21.392,-2.542 21.833,-3.25 22,-3.85C22.333,-4.883 22.275,-5.717 21.825,-6.35C21.375,-6.983 20.617,-7.4 19.55,-7.6C19.15,-7.667 18.633,-7.675 18,-7.625C17.367,-7.575 16.7,-7.458 16,-7.275C15.3,-7.092 14.583,-6.858 13.85,-6.575C13.117,-6.292 12.45,-5.967 11.85,-5.6C11.817,-5.5 11.767,-5.383 11.7,-5.25C11.8,-5.217 11.9,-5.2 12,-5.2L12.4,-5.2C12.467,-5.2 12.525,-5.192 12.575,-5.175C12.625,-5.158 12.683,-5.15 12.75,-5.15L13.25,-5.15C13.45,-5.15 13.758,-5.158 14.175,-5.175C14.592,-5.192 15,-5.233 15.4,-5.3C15.9,-5.367 16.25,-5.433 16.45,-5.5C16.517,-5.5 16.558,-5.508 16.575,-5.525C16.592,-5.542 16.617,-5.55 16.65,-5.55C16.683,-5.55 16.717,-5.567 16.75,-5.6L16.8,-5.6C16.8,-5.567 16.717,-5.517 16.55,-5.45C16.483,-5.417 16.392,-5.383 16.275,-5.35C16.158,-5.317 16.017,-5.283 15.85,-5.25C15.317,-5.117 14.583,-5.017 13.65,-4.95L11.65,-4.95C10.883,-2.483 10.983,-0.833 11.95,0C12.083,0.067 12.183,0.15 12.25,0.25C12.383,0.45 12.383,0.617 12.25,0.75C12.15,0.817 11.983,0.85 11.75,0.85C11.517,0.85 11.258,0.808 10.975,0.725C10.692,0.642 10.392,0.5 10.075,0.3C9.758,0.1 9.483,-0.167 9.25,-0.5C8.95,-0.933 8.742,-1.55 8.625,-2.35C8.508,-3.15 8.55,-4.133 8.75,-5.3C8.65,-5.333 8.542,-5.358 8.425,-5.375C8.308,-5.392 8.2,-5.417 8.1,-5.45L8.15,-5.45C7.15,-5.65 6.233,-5.917 5.4,-6.25C4.967,-6.417 4.533,-6.6 4.1,-6.8C3.667,-7 3.25,-7.233 2.85,-7.5C2.483,-7.767 2.125,-8.033 1.775,-8.3C1.425,-8.567 1.117,-8.883 0.85,-9.25C0.283,-9.883 -0.167,-10.65 -0.5,-11.55C-0.667,-11.983 -0.767,-12.433 -0.8,-12.9C-0.867,-13.3 -0.867,-13.733 -0.8,-14.2L-0.8,-14.55C-0.8,-14.617 -0.783,-14.667 -0.75,-14.7L-0.75,-14.9C-0.75,-14.967 -0.742,-15.017 -0.725,-15.05C-0.708,-15.083 -0.7,-15.133 -0.7,-15.2L-0.65,-15.55C-0.55,-16.05 -0.433,-16.483 -0.3,-16.85C0.033,-17.85 0.517,-18.783 1.15,-19.65C1.45,-20.117 1.783,-20.533 2.15,-20.9C2.517,-21.267 2.9,-21.633 3.3,-22C3.567,-22.267 3.825,-22.492 4.075,-22.675C4.325,-22.858 4.567,-23.033 4.8,-23.2C5.033,-23.367 5.258,-23.517 5.475,-23.65C5.692,-23.783 5.917,-23.917 6.15,-24.05C6.383,-24.217 6.608,-24.35 6.825,-24.45C7.042,-24.55 7.283,-24.683 7.55,-24.85C8.017,-25.083 8.6,-25.35 9.3,-25.65C9.467,-25.717 9.65,-25.792 9.85,-25.875C10.05,-25.958 10.25,-26.033 10.45,-26.1C10.65,-26.167 10.9,-26.25 11.2,-26.35C11.5,-26.45 11.817,-26.55 12.15,-26.65C12.45,-26.75 12.742,-26.833 13.025,-26.9C13.308,-26.967 13.533,-27.017 13.7,-27.05C13.833,-27.117 13.967,-27.158 14.1,-27.175C14.233,-27.192 14.383,-27.217 14.55,-27.25C16.317,-27.817 18.033,-28.108 19.7,-28.125C21.367,-28.142 22.783,-27.817 23.95,-27.15ZM23.3,-17.9C24.133,-18.967 24.717,-19.883 25.05,-20.65C25.383,-21.417 25.567,-22.075 25.6,-22.625C25.633,-23.175 25.558,-23.625 25.375,-23.975C25.192,-24.325 25.033,-24.617 24.9,-24.85C24.733,-25.05 24.35,-25.267 23.75,-25.5C23.15,-25.733 22.383,-25.875 21.45,-25.925C20.517,-25.975 19.433,-25.9 18.2,-25.7C16.967,-25.5 15.633,-25.083 14.2,-24.45C12.767,-23.817 11.492,-23.133 10.375,-22.4C9.258,-21.667 8.325,-20.925 7.575,-20.175C6.825,-19.425 6.283,-18.7 5.95,-18C5.617,-17.3 5.517,-16.65 5.65,-16.05C5.717,-15.65 5.942,-15.367 6.325,-15.2C6.708,-15.033 7.1,-14.917 7.5,-14.85C7.967,-14.783 8.5,-14.767 9.1,-14.8C9.2,-14.767 9.317,-14.75 9.45,-14.75C9.55,-14.717 9.65,-14.7 9.75,-14.7C9.85,-14.7 9.933,-14.667 10,-14.6C10.1,-14.467 10.283,-14.242 10.55,-13.925C10.817,-13.608 10.967,-13.3 11,-13C11.033,-12.7 10.858,-12.492 10.475,-12.375C10.092,-12.258 9.617,-12.217 9.05,-12.25C8.75,-12.25 8.358,-12.292 7.875,-12.375C7.392,-12.458 6.892,-12.617 6.375,-12.85C5.858,-13.083 5.367,-13.425 4.9,-13.875C4.433,-14.325 4.083,-14.917 3.85,-15.65C3.583,-16.383 3.558,-17.192 3.775,-18.075C3.992,-18.958 4.392,-19.833 4.975,-20.7C5.558,-21.567 6.292,-22.4 7.175,-23.2C8.058,-24 9.05,-24.717 10.15,-25.35C10.383,-25.483 10.625,-25.617 10.875,-25.75C11.125,-25.883 11.383,-26 11.65,-26.1C11.483,-26.033 11.325,-25.983 11.175,-25.95C11.025,-25.917 10.867,-25.867 10.7,-25.8C10.4,-25.667 10.1,-25.542 9.8,-25.425C9.5,-25.308 9.167,-25.167 8.8,-25C7.367,-24.367 6.033,-23.617 4.8,-22.75C4.533,-22.517 4.267,-22.292 4,-22.075C3.733,-21.858 3.467,-21.617 3.2,-21.35C2.933,-21.117 2.683,-20.867 2.45,-20.6C2.217,-20.333 1.983,-20.067 1.75,-19.8C1.55,-19.533 1.358,-19.25 1.175,-18.95C0.992,-18.65 0.817,-18.35 0.65,-18.05C0.283,-17.383 0.033,-16.717 -0.1,-16.05C-0.133,-15.983 -0.15,-15.933 -0.15,-15.9C-0.15,-15.867 -0.167,-15.817 -0.2,-15.75L-0.25,-15.6L-0.25,-15.4C-0.283,-15.333 -0.3,-15.233 -0.3,-15.1L-0.35,-14.75C-0.383,-14.517 -0.408,-14.3 -0.425,-14.1C-0.442,-13.9 -0.45,-13.683 -0.45,-13.45C-0.383,-12.517 -0.167,-11.667 0.2,-10.9C0.433,-10.433 0.708,-10.017 1.025,-9.65C1.342,-9.283 1.683,-8.933 2.05,-8.6C2.783,-7.967 3.633,-7.433 4.6,-7C5.667,-6.5 6.8,-6.1 8,-5.8C8.133,-5.767 8.267,-5.742 8.4,-5.725C8.533,-5.708 8.667,-5.683 8.8,-5.65C9,-6.75 9.35,-7.917 9.85,-9.15C10.25,-10.217 10.792,-11.417 11.475,-12.75C12.158,-14.083 12.875,-15.408 13.625,-16.725C14.375,-18.042 15.1,-19.275 15.8,-20.425C16.5,-21.575 17.067,-22.5 17.5,-23.2C17.633,-23.4 17.767,-23.567 17.9,-23.7C18.167,-23.967 18.467,-24.083 18.8,-24.05C18.933,-24.017 19.142,-23.9 19.425,-23.7C19.708,-23.5 19.975,-23.267 20.225,-23C20.475,-22.733 20.642,-22.425 20.725,-22.075C20.808,-21.725 20.733,-21.383 20.5,-21.05C20.267,-20.717 19.9,-20.167 19.4,-19.4C18.9,-18.633 18.325,-17.742 17.675,-16.725C17.025,-15.708 16.358,-14.617 15.675,-13.45C14.992,-12.283 14.35,-11.133 13.75,-10C14.483,-10.5 15.292,-11.067 16.175,-11.7C17.058,-12.333 17.933,-13 18.8,-13.7C19.667,-14.4 20.492,-15.108 21.275,-15.825C22.058,-16.542 22.733,-17.233 23.3,-17.9Z" style="fill:white;"/>
                    </g>
                    <g transform="matrix(1,0,0,1,2395.594,2215.742)">
                        <g>
                            <path d="M38,-1.75C38.033,-1.617 38.033,-1.492 38,-1.375C37.967,-1.258 37.95,-1.133 37.95,-1C37.95,-0.833 37.925,-0.65 37.875,-0.45C37.825,-0.25 37.767,-0.083 37.7,0.05C37.6,0.617 37.467,1.017 37.3,1.25C37.267,1.35 37.233,1.425 37.2,1.475C37.167,1.525 37.15,1.583 37.15,1.65C37.083,1.783 37.05,1.8 37.05,1.7C37.05,1.667 37.1,1.542 37.2,1.325C37.3,1.108 37.383,0.817 37.45,0.45C37.517,0.283 37.567,0.117 37.6,-0.05C37.633,-0.217 37.683,-0.433 37.75,-0.7L37.75,-1.075C37.75,-1.192 37.767,-1.333 37.8,-1.5C37.833,-1.633 37.833,-1.775 37.8,-1.925C37.767,-2.075 37.717,-2.217 37.65,-2.35C37.583,-2.517 37.533,-2.658 37.5,-2.775C37.467,-2.892 37.417,-3 37.35,-3.1C37.183,-3.333 37.017,-3.55 36.85,-3.75C36.417,-4.117 35.933,-4.35 35.4,-4.45C34.9,-4.583 34.317,-4.65 33.65,-4.65C33.383,-4.65 33.108,-4.642 32.825,-4.625C32.542,-4.608 32.267,-4.583 32,-4.55L32.05,-4.55C31.45,-4.483 30.833,-4.4 30.2,-4.3C29.567,-4.2 28.967,-4.067 28.4,-3.9C27.767,-3.733 27.158,-3.575 26.575,-3.425C25.992,-3.275 25.417,-3.117 24.85,-2.95C22.65,-2.283 20.45,-1.55 18.25,-0.75C16.05,0.05 13.85,0.833 11.65,1.6C10.983,1.867 10.325,2.108 9.675,2.325C9.025,2.542 8.333,2.75 7.6,2.95C7.3,3.05 6.992,3.15 6.675,3.25C6.358,3.35 6.033,3.433 5.7,3.5C5.367,3.567 5.033,3.633 4.7,3.7C4.367,3.767 4.017,3.8 3.65,3.8C3.417,3.767 3.183,3.733 2.95,3.7C2.717,3.667 2.5,3.6 2.3,3.5C2.233,3.433 2.15,3.375 2.05,3.325C1.95,3.275 1.867,3.217 1.8,3.15C1.733,3.083 1.683,3.008 1.65,2.925C1.617,2.842 1.567,2.75 1.5,2.65C1.367,2.35 1.3,2 1.3,1.6C1.267,1.433 1.267,1.267 1.3,1.1C1.333,0.933 1.383,0.767 1.45,0.6C1.517,0.233 1.6,-0.108 1.7,-0.425C1.8,-0.742 1.9,-1.083 2,-1.45C2.167,-1.817 2.333,-2.183 2.5,-2.55C2.667,-2.917 2.867,-3.317 3.1,-3.75C3.267,-4.017 3.417,-4.267 3.55,-4.5C3.683,-4.733 3.817,-4.967 3.95,-5.2C4.05,-5.4 4.175,-5.625 4.325,-5.875C4.475,-6.125 4.633,-6.383 4.8,-6.65C4,-5.65 3.3,-5 2.7,-4.7C2.033,-4.433 1.492,-4.483 1.075,-4.85C0.658,-5.217 0.367,-5.617 0.2,-6.05C0.133,-6.317 0.092,-6.625 0.075,-6.975C0.058,-7.325 0.05,-7.667 0.05,-8C0.05,-8.367 0.067,-8.75 0.1,-9.15C0.333,-10.117 0.567,-11.017 0.8,-11.85C1.033,-12.683 1.383,-13.667 1.85,-14.8L1.95,-15C2.017,-15.133 2.133,-15.217 2.3,-15.25C2.5,-15.283 2.758,-15.325 3.075,-15.375C3.392,-15.425 3.7,-15.45 4,-15.45C4.3,-15.45 4.558,-15.408 4.775,-15.325C4.992,-15.242 5.133,-15.1 5.2,-14.9L5.2,-14.75C5.2,-14.617 5.15,-14.45 5.05,-14.25C4.483,-13.117 4.033,-12.183 3.7,-11.45C3.367,-10.717 3.067,-9.967 2.8,-9.2C2.633,-8.7 2.5,-8.233 2.4,-7.8C2.333,-7.433 2.275,-7.075 2.225,-6.725C2.175,-6.375 2.2,-6.133 2.3,-6C2.533,-6.133 2.783,-6.3 3.05,-6.5C3.283,-6.667 3.55,-6.908 3.85,-7.225C4.15,-7.542 4.483,-7.933 4.85,-8.4C5.25,-8.933 5.658,-9.525 6.075,-10.175C6.492,-10.825 6.892,-11.483 7.275,-12.15C7.658,-12.817 8.008,-13.467 8.325,-14.1C8.642,-14.733 8.933,-15.3 9.2,-15.8C9.333,-16.067 9.45,-16.317 9.55,-16.55C9.65,-16.783 9.733,-16.983 9.8,-17.15C9.9,-17.317 9.967,-17.467 10,-17.6C10,-17.633 10.033,-17.683 10.1,-17.75C10.167,-17.783 10.233,-17.817 10.3,-17.85C10.367,-17.883 10.483,-17.9 10.65,-17.9L11.3,-17.9C11.5,-17.867 11.717,-17.833 11.95,-17.8C12.183,-17.767 12.433,-17.683 12.7,-17.55C12.767,-17.517 12.817,-17.467 12.85,-17.4C12.917,-17.267 12.9,-17.117 12.8,-16.95L12.2,-15.45C11.233,-13.083 10.433,-10.9 9.8,-8.9C9.533,-8.033 9.283,-7.175 9.05,-6.325C8.817,-5.475 8.633,-4.667 8.5,-3.9C8.367,-3.133 8.308,-2.458 8.325,-1.875C8.342,-1.292 8.45,-0.85 8.65,-0.55C8.883,-1.283 9.15,-2.008 9.45,-2.725C9.75,-3.442 10.058,-4.125 10.375,-4.775C10.692,-5.425 11,-6.042 11.3,-6.625C11.6,-7.208 11.883,-7.717 12.15,-8.15C12.55,-8.85 12.917,-9.408 13.25,-9.825C13.583,-10.242 13.875,-10.567 14.125,-10.8C14.375,-11.033 14.592,-11.192 14.775,-11.275C14.958,-11.358 15.1,-11.383 15.2,-11.35C15.333,-11.25 15.35,-11.067 15.25,-10.8C15.183,-10.667 15.1,-10.517 15,-10.35C13.367,-7.617 12.15,-5.392 11.35,-3.675C10.55,-1.958 10.017,-0.717 9.75,0.05C9.583,0.383 9.417,0.683 9.25,0.95C9.083,1.183 8.883,1.383 8.65,1.55C8.417,1.717 8.15,1.8 7.85,1.8C7.383,1.8 7.008,1.692 6.725,1.475C6.442,1.258 6.217,0.975 6.05,0.625C5.883,0.275 5.767,-0.133 5.7,-0.6C5.633,-1.067 5.6,-1.533 5.6,-2C5.6,-3.1 5.75,-4.35 6.05,-5.75C6.117,-6.317 6.242,-6.9 6.425,-7.5C6.608,-8.1 6.8,-8.717 7,-9.35C6.9,-9.183 6.783,-9 6.65,-8.8C6.517,-8.6 6.4,-8.417 6.3,-8.25C6.233,-8.183 6.167,-8.083 6.1,-7.95C6.033,-7.817 5.983,-7.717 5.95,-7.65C5.583,-7.217 5.292,-6.808 5.075,-6.425C4.858,-6.042 4.633,-5.65 4.4,-5.25C4.2,-4.883 3.975,-4.5 3.725,-4.1C3.475,-3.7 3.25,-3.267 3.05,-2.8C2.917,-2.567 2.808,-2.333 2.725,-2.1C2.642,-1.867 2.517,-1.633 2.35,-1.4C2.25,-0.967 2.1,-0.483 1.9,0.05C1.833,0.283 1.792,0.517 1.775,0.75C1.758,0.983 1.733,1.217 1.7,1.45C1.7,1.95 1.817,2.367 2.05,2.7C2.117,2.767 2.167,2.833 2.2,2.9C2.233,2.967 2.3,3.033 2.4,3.1C2.533,3.167 2.733,3.233 3,3.3C3.367,3.4 3.8,3.417 4.3,3.35C4.467,3.35 4.683,3.317 4.95,3.25C5.05,3.217 5.158,3.192 5.275,3.175C5.392,3.158 5.5,3.133 5.6,3.1C5.833,3.033 6.075,2.975 6.325,2.925C6.575,2.875 6.8,2.817 7,2.75C7.467,2.617 7.917,2.483 8.35,2.35C8.783,2.217 9.233,2.067 9.7,1.9C10.6,1.567 11.5,1.25 12.4,0.95C13.533,0.55 14.667,0.142 15.8,-0.275C16.933,-0.692 18.033,-1.1 19.1,-1.5C19.833,-1.733 20.517,-1.958 21.15,-2.175C21.783,-2.392 22.433,-2.6 23.1,-2.8C23.767,-3 24.425,-3.2 25.075,-3.4C25.725,-3.6 26.4,-3.783 27.1,-3.95C27.467,-4.05 27.833,-4.142 28.2,-4.225C28.567,-4.308 28.983,-4.383 29.45,-4.45C29.817,-4.517 30.192,-4.583 30.575,-4.65C30.958,-4.717 31.333,-4.783 31.7,-4.85C32.133,-4.883 32.542,-4.908 32.925,-4.925C33.308,-4.942 33.7,-4.95 34.1,-4.95C34.3,-4.917 34.492,-4.892 34.675,-4.875C34.858,-4.858 35.033,-4.833 35.2,-4.8C35.4,-4.733 35.6,-4.675 35.8,-4.625C36,-4.575 36.183,-4.517 36.35,-4.45C36.483,-4.383 36.575,-4.333 36.625,-4.3C36.675,-4.267 36.733,-4.217 36.8,-4.15C36.867,-4.083 36.9,-4.05 36.9,-4.05C36.933,-4.05 36.967,-4.033 37,-4C37.067,-3.967 37.133,-3.917 37.2,-3.85C37.233,-3.817 37.233,-3.792 37.2,-3.775C37.167,-3.758 37.167,-3.75 37.2,-3.75C37.2,-3.717 37.208,-3.7 37.225,-3.7C37.242,-3.7 37.25,-3.683 37.25,-3.65C37.35,-3.617 37.417,-3.55 37.45,-3.45C37.483,-3.383 37.517,-3.308 37.55,-3.225C37.583,-3.142 37.633,-3.033 37.7,-2.9C37.733,-2.8 37.783,-2.65 37.85,-2.45C37.883,-2.35 37.917,-2.242 37.95,-2.125C37.983,-2.008 38,-1.883 38,-1.75Z" style="fill:white;"/>
                            <path d="M27.9,-11.35C28.033,-11.283 28.067,-11.1 28,-10.8C27.967,-10.667 27.917,-10.517 27.85,-10.35C26.317,-7.617 25.225,-5.392 24.575,-3.675C23.925,-1.958 23.467,-0.717 23.2,0.05C23.067,0.383 22.917,0.683 22.75,0.95C22.583,1.183 22.392,1.383 22.175,1.55C21.958,1.717 21.7,1.8 21.4,1.8C20.5,1.8 19.875,1.408 19.525,0.625C19.175,-0.158 18.967,-1.033 18.9,-2C18.833,-3.1 18.917,-4.35 19.15,-5.75C19.417,-7.55 19.8,-9.358 20.3,-11.175C20.8,-12.992 21.367,-14.767 22,-16.5C21.9,-16.367 21.642,-16.008 21.225,-15.425C20.808,-14.842 20.308,-14.058 19.725,-13.075C19.142,-12.092 18.517,-10.95 17.85,-9.65C17.183,-8.35 16.533,-6.9 15.9,-5.3C15.767,-5.033 15.633,-4.8 15.5,-4.6C15.333,-4.433 15.15,-4.267 14.95,-4.1C14.75,-3.933 14.5,-3.867 14.2,-3.9C13.833,-3.9 13.567,-4.008 13.4,-4.225C13.233,-4.442 13.117,-4.683 13.05,-4.95C12.95,-5.25 12.9,-5.6 12.9,-6C12.867,-6.367 12.858,-6.742 12.875,-7.125C12.892,-7.508 12.917,-7.85 12.95,-8.15C12.983,-8.517 13,-8.85 13,-9.15C13.133,-10.117 13.308,-11.017 13.525,-11.85C13.742,-12.683 14.017,-13.667 14.35,-14.8L14.45,-15C14.517,-15.133 14.633,-15.217 14.8,-15.25C15,-15.283 15.25,-15.325 15.55,-15.375C15.85,-15.425 16.15,-15.45 16.45,-15.45C16.75,-15.45 17.017,-15.408 17.25,-15.325C17.483,-15.242 17.633,-15.1 17.7,-14.9L17.7,-14.75C17.7,-14.683 17.683,-14.608 17.65,-14.525C17.617,-14.442 17.583,-14.35 17.55,-14.25C16.983,-12.883 16.542,-11.783 16.225,-10.95C15.908,-10.117 15.667,-9.183 15.5,-8.15C15.667,-8.483 15.908,-8.983 16.225,-9.65C16.542,-10.317 16.908,-11.042 17.325,-11.825C17.742,-12.608 18.2,-13.417 18.7,-14.25C19.2,-15.083 19.708,-15.842 20.225,-16.525C20.742,-17.208 21.25,-17.75 21.75,-18.15C22.25,-18.55 22.717,-18.733 23.15,-18.7C23.65,-18.667 24.05,-18.483 24.35,-18.15C24.617,-17.883 24.775,-17.45 24.825,-16.85C24.875,-16.25 24.683,-15.417 24.25,-14.35C23.517,-12.183 22.917,-10.183 22.45,-8.35C22.25,-7.55 22.075,-6.75 21.925,-5.95C21.775,-5.15 21.667,-4.4 21.6,-3.7C21.533,-3 21.525,-2.375 21.575,-1.825C21.625,-1.275 21.767,-0.85 22,-0.55C22.4,-2.017 22.908,-3.433 23.525,-4.8C24.142,-6.167 24.65,-7.283 25.05,-8.15C25.717,-9.517 26.3,-10.4 26.8,-10.8C27.3,-11.2 27.667,-11.383 27.9,-11.35Z" style="fill:white;"/>
                            <path d="M43.15,-31.3C43.383,-31.3 43.633,-31.258 43.9,-31.175C44.167,-31.092 44.4,-30.967 44.6,-30.8C44.8,-30.633 44.925,-30.417 44.975,-30.15C45.025,-29.883 44.933,-29.583 44.7,-29.25C44.533,-29.017 44.192,-28.408 43.675,-27.425C43.158,-26.442 42.558,-25.208 41.875,-23.725C41.192,-22.242 40.483,-20.567 39.75,-18.7C39.017,-16.833 38.367,-14.9 37.8,-12.9C37.233,-10.9 36.808,-8.9 36.525,-6.9C36.242,-4.9 36.2,-3.017 36.4,-1.25C36.467,-0.783 36.525,-0.383 36.575,-0.05C36.625,0.283 36.683,0.583 36.75,0.85C36.85,0.183 37,-0.55 37.2,-1.35C37.4,-2.15 37.633,-2.942 37.9,-3.725C38.167,-4.508 38.442,-5.258 38.725,-5.975C39.008,-6.692 39.25,-7.283 39.45,-7.75C40.017,-9.117 40.525,-10.008 40.975,-10.425C41.425,-10.842 41.767,-11.017 42,-10.95C42.1,-10.917 42.158,-10.85 42.175,-10.75C42.192,-10.65 42.183,-10.55 42.15,-10.45C42.117,-10.317 42.067,-10.167 42,-10C41.233,-8.333 40.608,-6.858 40.125,-5.575C39.642,-4.292 39.25,-3.192 38.95,-2.275C38.65,-1.358 38.433,-0.592 38.3,0.025C38.167,0.642 38.083,1.117 38.05,1.45C38.017,1.85 37.933,2.2 37.8,2.5C37.7,2.767 37.533,3 37.3,3.2C37.067,3.4 36.767,3.467 36.4,3.4C35.533,3.267 34.9,2.733 34.5,1.8C34.1,0.867 33.833,-0.133 33.7,-1.2C33.567,-2.433 33.55,-3.817 33.65,-5.35C33.683,-5.583 33.708,-5.808 33.725,-6.025C33.742,-6.242 33.767,-6.483 33.8,-6.75C33.033,-5.183 32.342,-3.942 31.725,-3.025C31.108,-2.108 30.558,-1.408 30.075,-0.925C29.592,-0.442 29.158,-0.125 28.775,0.025C28.392,0.175 28.05,0.25 27.75,0.25C27.417,0.25 27.108,0.167 26.825,0C26.542,-0.167 26.3,-0.367 26.1,-0.6C25.833,-0.833 25.6,-1.117 25.4,-1.45C25,-2.05 24.775,-2.842 24.725,-3.825C24.675,-4.808 24.742,-5.842 24.925,-6.925C25.108,-8.008 25.367,-9.067 25.7,-10.1C26.033,-11.133 26.383,-11.983 26.75,-12.65C27.483,-14.017 28.375,-15.133 29.425,-16C30.475,-16.867 31.867,-17.217 33.6,-17.05C34.067,-16.983 34.475,-16.883 34.825,-16.75C35.175,-16.617 35.483,-16.45 35.75,-16.25C36.283,-18.217 36.867,-20.058 37.5,-21.775C38.133,-23.492 38.717,-25 39.25,-26.3C39.783,-27.6 40.233,-28.625 40.6,-29.375C40.967,-30.125 41.167,-30.533 41.2,-30.6C41.233,-30.667 41.3,-30.75 41.4,-30.85L41.5,-30.95L41.95,-31.1C42.117,-31.167 42.292,-31.217 42.475,-31.25C42.658,-31.283 42.883,-31.3 43.15,-31.3ZM34.55,-11.55C34.583,-11.65 34.608,-11.783 34.625,-11.95C34.642,-12.117 34.667,-12.283 34.7,-12.45C34.733,-12.617 34.75,-12.8 34.75,-13C34.783,-13.433 34.775,-13.858 34.725,-14.275C34.675,-14.692 34.575,-15.033 34.425,-15.3C34.275,-15.567 34.075,-15.742 33.825,-15.825C33.575,-15.908 33.267,-15.833 32.9,-15.6C32.333,-15.233 31.758,-14.642 31.175,-13.825C30.592,-13.008 30.05,-12.125 29.55,-11.175C29.05,-10.225 28.625,-9.283 28.275,-8.35C27.925,-7.417 27.7,-6.65 27.6,-6.05C27.467,-5.45 27.367,-4.867 27.3,-4.3C27.233,-3.733 27.208,-3.225 27.225,-2.775C27.242,-2.325 27.325,-1.95 27.475,-1.65C27.625,-1.35 27.85,-1.183 28.15,-1.15C28.317,-1.117 28.575,-1.325 28.925,-1.775C29.275,-2.225 29.667,-2.792 30.1,-3.475C30.533,-4.158 30.992,-4.917 31.475,-5.75C31.958,-6.583 32.408,-7.392 32.825,-8.175C33.242,-8.958 33.6,-9.658 33.9,-10.275C34.2,-10.892 34.417,-11.317 34.55,-11.55Z" style="fill:white;"/>
                            <path d="M56.95,-10.9C57.15,-10.733 57.25,-10.35 57.25,-9.75C57.25,-9.15 56.95,-8.167 56.35,-6.8C56.083,-6.2 55.725,-5.458 55.275,-4.575C54.825,-3.692 54.333,-2.808 53.8,-1.925C53.267,-1.042 52.717,-0.225 52.15,0.525C51.583,1.275 51.067,1.8 50.6,2.1C50.467,2.2 50.333,2.283 50.2,2.35C50.067,2.417 49.9,2.475 49.7,2.525C49.5,2.575 49.267,2.567 49,2.5C48.7,2.433 48.442,2.325 48.225,2.175C48.008,2.025 47.833,1.867 47.7,1.7C47.567,1.5 47.45,1.267 47.35,1C47.183,0.533 47.092,0 47.075,-0.6C47.058,-1.2 47.075,-1.833 47.125,-2.5C47.175,-3.167 47.258,-3.833 47.375,-4.5C47.492,-5.167 47.617,-5.783 47.75,-6.35C47.083,-5.283 46.483,-4.425 45.95,-3.775C45.417,-3.125 44.942,-2.633 44.525,-2.3C44.108,-1.967 43.725,-1.75 43.375,-1.65C43.025,-1.55 42.717,-1.5 42.45,-1.5C42.117,-1.5 41.808,-1.575 41.525,-1.725C41.242,-1.875 41,-2.033 40.8,-2.2C40.567,-2.4 40.35,-2.65 40.15,-2.95C39.75,-3.45 39.525,-4.142 39.475,-5.025C39.425,-5.908 39.483,-6.825 39.65,-7.775C39.817,-8.725 40.067,-9.65 40.4,-10.55C40.733,-11.45 41.083,-12.183 41.45,-12.75C41.817,-13.317 42.217,-13.85 42.65,-14.35C43.083,-14.85 43.575,-15.275 44.125,-15.625C44.675,-15.975 45.292,-16.233 45.975,-16.4C46.658,-16.567 47.433,-16.617 48.3,-16.55C48.9,-16.483 49.4,-16.367 49.8,-16.2C50.2,-16.033 50.533,-15.817 50.8,-15.55C51.067,-16.15 51.333,-16.667 51.6,-17.1L51.65,-17.15C51.717,-17.217 51.783,-17.267 51.85,-17.3C52.017,-17.367 52.258,-17.425 52.575,-17.475C52.892,-17.525 53.25,-17.517 53.65,-17.45C54.15,-17.317 54.475,-17.058 54.625,-16.675C54.775,-16.292 54.767,-15.95 54.6,-15.65C54.567,-15.55 54.358,-15.117 53.975,-14.35C53.592,-13.583 53.158,-12.642 52.675,-11.525C52.192,-10.408 51.692,-9.183 51.175,-7.85C50.658,-6.517 50.233,-5.25 49.9,-4.05C49.567,-2.85 49.375,-1.783 49.325,-0.85C49.275,0.083 49.467,0.717 49.9,1.05C50.367,0.65 50.917,-0.017 51.55,-0.95C52.117,-1.75 52.783,-2.883 53.55,-4.35C54.317,-5.817 55.217,-7.767 56.25,-10.2C56.283,-10.333 56.35,-10.467 56.45,-10.6C56.65,-10.867 56.817,-10.967 56.95,-10.9ZM42.85,-2.75C43.017,-2.717 43.283,-2.9 43.65,-3.3C44.017,-3.7 44.417,-4.2 44.85,-4.8C45.283,-5.4 45.742,-6.067 46.225,-6.8C46.708,-7.533 47.158,-8.233 47.575,-8.9C47.992,-9.567 48.35,-10.158 48.65,-10.675C48.95,-11.192 49.167,-11.55 49.3,-11.75C49.4,-12.217 49.458,-12.708 49.475,-13.225C49.492,-13.742 49.442,-14.192 49.325,-14.575C49.208,-14.958 49.008,-15.225 48.725,-15.375C48.442,-15.525 48.067,-15.483 47.6,-15.25C47.033,-14.95 46.467,-14.45 45.9,-13.75C45.333,-13.05 44.8,-12.283 44.3,-11.45C43.8,-10.617 43.375,-9.8 43.025,-9C42.675,-8.2 42.433,-7.533 42.3,-7C42.067,-5.933 41.95,-4.975 41.95,-4.125C41.95,-3.275 42.25,-2.817 42.85,-2.75Z" style="fill:white;"/>
                        </g>
                    </g>
                </g>
            </g>
            <g transform="matrix(35.819432,0,0,35.819432,-161236.143237,-92092.423354)">
                <g transform="matrix(50,0,0,50,4623.096632,2657.032329)">
                    <path d="M0.499,-0.127L0.479,-0L-0.003,-0L0.014,-0.113L0.267,-0.348C0.281,-0.361 0.295,-0.376 0.311,-0.393C0.327,-0.41 0.341,-0.427 0.353,-0.447C0.365,-0.466 0.373,-0.485 0.375,-0.505C0.377,-0.52 0.377,-0.534 0.375,-0.548C0.372,-0.562 0.367,-0.573 0.358,-0.582C0.349,-0.591 0.335,-0.595 0.318,-0.596C0.298,-0.596 0.281,-0.591 0.267,-0.579C0.254,-0.567 0.243,-0.553 0.236,-0.535C0.229,-0.518 0.224,-0.5 0.222,-0.483L0.062,-0.482C0.064,-0.529 0.078,-0.571 0.104,-0.607C0.129,-0.643 0.162,-0.671 0.202,-0.692C0.242,-0.712 0.285,-0.722 0.331,-0.722C0.373,-0.721 0.411,-0.713 0.444,-0.698C0.477,-0.682 0.502,-0.66 0.52,-0.63C0.538,-0.6 0.545,-0.563 0.542,-0.518C0.539,-0.487 0.531,-0.458 0.517,-0.432C0.504,-0.406 0.487,-0.381 0.467,-0.358C0.447,-0.335 0.426,-0.313 0.403,-0.293C0.38,-0.272 0.359,-0.252 0.338,-0.232L0.23,-0.128L0.499,-0.127Z" style="fill:rgb(255,211,57);"/>
                </g>
                <g transform="matrix(50,0,0,50,4646.197218,2657.032329)">
                    <path d="M0.465,-0.711L0.346,-0L0.185,-0L0.276,-0.522L0.11,-0.476L0.133,-0.606L0.447,-0.711L0.465,-0.711Z" style="fill:rgb(255,211,57);"/>
                </g>
            </g>
            <g transform="matrix(4.149628,0,0,4.149628,-11891.623405,-11596.499583)">
                <g transform="matrix(50,0,0,50,3141.290464,3632.515987)">
                    <path d="M0.459,-0.05L0.452,-0L0.02,-0L0.026,-0.048L0.291,-0.31C0.311,-0.329 0.331,-0.35 0.353,-0.373C0.374,-0.395 0.393,-0.419 0.41,-0.445C0.426,-0.471 0.437,-0.498 0.441,-0.527C0.445,-0.554 0.443,-0.579 0.435,-0.6C0.427,-0.622 0.413,-0.639 0.393,-0.651C0.374,-0.664 0.35,-0.67 0.322,-0.671C0.289,-0.671 0.26,-0.664 0.235,-0.649C0.21,-0.635 0.189,-0.615 0.173,-0.59C0.157,-0.565 0.146,-0.537 0.141,-0.506L0.084,-0.506C0.09,-0.547 0.103,-0.584 0.125,-0.616C0.147,-0.649 0.175,-0.675 0.209,-0.693C0.243,-0.712 0.281,-0.721 0.323,-0.721C0.361,-0.72 0.394,-0.713 0.422,-0.697C0.45,-0.682 0.471,-0.66 0.485,-0.632C0.5,-0.604 0.504,-0.57 0.5,-0.532C0.497,-0.506 0.49,-0.481 0.478,-0.458C0.466,-0.434 0.452,-0.412 0.435,-0.39C0.418,-0.368 0.4,-0.348 0.382,-0.329C0.363,-0.309 0.344,-0.291 0.327,-0.274L0.1,-0.05L0.459,-0.05Z" style="fill:white;fill-rule:nonzero;"/>
                </g>
                <g transform="matrix(50,0,0,50,3188.170347,3632.515987)">
                    <path d="M0.4,-0.714L0.279,-0L0.221,-0L0.332,-0.638L0.132,-0.568L0.142,-0.625L0.389,-0.714L0.4,-0.714Z" style="fill:white;fill-rule:nonzero;"/>
                </g>
                <g transform="matrix(50,0,0,50,3267.110777,3632.515987)">
                    <path d="M0.119,-0.528L0.177,-0.528L0.076,0.063C0.071,0.092 0.063,0.118 0.05,0.141C0.037,0.164 0.019,0.182 -0.002,0.195C-0.024,0.208 -0.051,0.214 -0.082,0.214C-0.091,0.214 -0.1,0.213 -0.109,0.211C-0.117,0.209 -0.126,0.207 -0.135,0.205L-0.128,0.156C-0.121,0.158 -0.114,0.159 -0.107,0.161C-0.1,0.162 -0.093,0.163 -0.086,0.163C-0.066,0.163 -0.049,0.159 -0.035,0.15C-0.021,0.141 -0.009,0.128 -0.001,0.113C0.008,0.098 0.014,0.081 0.017,0.063L0.119,-0.528ZM0.136,-0.681C0.136,-0.692 0.141,-0.701 0.148,-0.709C0.156,-0.717 0.166,-0.721 0.177,-0.721C0.188,-0.721 0.197,-0.717 0.205,-0.709C0.212,-0.702 0.215,-0.692 0.215,-0.681C0.214,-0.67 0.21,-0.661 0.202,-0.653C0.194,-0.646 0.184,-0.642 0.173,-0.642C0.162,-0.642 0.153,-0.645 0.146,-0.653C0.138,-0.66 0.135,-0.67 0.136,-0.681Z" style="fill:white;fill-rule:nonzero;"/>
                </g>
                <g transform="matrix(50,0,0,50,3298.170347,3632.515987)">
                    <path d="M0.037,-0.255L0.04,-0.271C0.044,-0.305 0.054,-0.338 0.068,-0.37C0.082,-0.403 0.1,-0.431 0.123,-0.457C0.145,-0.482 0.172,-0.502 0.203,-0.517C0.233,-0.531 0.267,-0.539 0.305,-0.538C0.342,-0.538 0.373,-0.53 0.4,-0.515C0.426,-0.5 0.447,-0.479 0.462,-0.454C0.478,-0.429 0.489,-0.4 0.495,-0.369C0.501,-0.337 0.501,-0.305 0.498,-0.272L0.496,-0.257C0.491,-0.222 0.481,-0.189 0.467,-0.157C0.453,-0.125 0.434,-0.096 0.412,-0.071C0.389,-0.046 0.363,-0.026 0.332,-0.011C0.301,0.003 0.267,0.01 0.23,0.01C0.193,0.009 0.162,0.002 0.136,-0.013C0.109,-0.029 0.089,-0.049 0.073,-0.074C0.057,-0.099 0.046,-0.127 0.041,-0.159C0.035,-0.19 0.034,-0.222 0.037,-0.255ZM0.097,-0.271L0.095,-0.254C0.091,-0.23 0.091,-0.205 0.094,-0.18C0.097,-0.155 0.104,-0.132 0.115,-0.111C0.125,-0.09 0.14,-0.073 0.159,-0.06C0.178,-0.047 0.202,-0.041 0.231,-0.04C0.261,-0.04 0.288,-0.046 0.312,-0.058C0.335,-0.071 0.356,-0.087 0.373,-0.108C0.391,-0.129 0.405,-0.153 0.415,-0.178C0.426,-0.204 0.434,-0.23 0.438,-0.257L0.44,-0.272C0.443,-0.297 0.443,-0.321 0.44,-0.346C0.437,-0.371 0.43,-0.395 0.42,-0.416C0.409,-0.437 0.394,-0.454 0.375,-0.468C0.356,-0.481 0.332,-0.487 0.303,-0.488C0.274,-0.488 0.247,-0.482 0.223,-0.47C0.2,-0.457 0.179,-0.44 0.162,-0.419C0.144,-0.398 0.13,-0.375 0.119,-0.349C0.108,-0.323 0.101,-0.297 0.097,-0.271Z" style="fill:white;fill-rule:nonzero;"/>
                </g>
                <g transform="matrix(50,0,0,50,3345.343199,3632.515987)">
                    <path d="M0.373,-0.125L0.443,-0.528L0.501,-0.528L0.409,-0L0.354,-0L0.373,-0.125ZM0.399,-0.22L0.429,-0.221C0.424,-0.189 0.415,-0.159 0.403,-0.131C0.391,-0.103 0.376,-0.078 0.357,-0.057C0.337,-0.036 0.314,-0.019 0.287,-0.007C0.26,0.005 0.229,0.01 0.194,0.01C0.164,0.01 0.14,0.004 0.12,-0.007C0.101,-0.018 0.086,-0.033 0.075,-0.051C0.064,-0.07 0.057,-0.091 0.054,-0.115C0.052,-0.139 0.052,-0.164 0.055,-0.19L0.113,-0.528L0.17,-0.528L0.112,-0.189C0.11,-0.171 0.109,-0.153 0.11,-0.136C0.111,-0.118 0.115,-0.103 0.122,-0.089C0.128,-0.075 0.138,-0.063 0.151,-0.055C0.164,-0.046 0.181,-0.042 0.203,-0.042C0.24,-0.041 0.272,-0.048 0.299,-0.064C0.326,-0.079 0.348,-0.1 0.365,-0.128C0.382,-0.155 0.393,-0.185 0.399,-0.22Z" style="fill:white;fill-rule:nonzero;"/>
                </g>
                <g transform="matrix(50,0,0,50,3391.978941,3632.515987)">
                    <path d="M0.156,-0.439L0.081,-0L0.023,-0L0.115,-0.528L0.171,-0.528L0.156,-0.439ZM0.352,-0.532L0.345,-0.479C0.339,-0.48 0.333,-0.481 0.327,-0.481C0.32,-0.482 0.314,-0.482 0.308,-0.482C0.282,-0.483 0.259,-0.478 0.238,-0.468C0.218,-0.457 0.2,-0.444 0.185,-0.427C0.17,-0.409 0.157,-0.39 0.147,-0.368C0.137,-0.347 0.129,-0.325 0.124,-0.302L0.101,-0.294C0.106,-0.322 0.113,-0.351 0.123,-0.38C0.133,-0.409 0.146,-0.435 0.163,-0.459C0.18,-0.484 0.2,-0.503 0.225,-0.518C0.249,-0.532 0.279,-0.539 0.312,-0.539C0.319,-0.539 0.326,-0.538 0.332,-0.537C0.339,-0.536 0.346,-0.534 0.352,-0.532Z" style="fill:white;fill-rule:nonzero;"/>
                </g>
                <g transform="matrix(50,0,0,50,3428.287535,3632.515987)">
                    <path d="M0.357,-0.136C0.361,-0.16 0.357,-0.179 0.345,-0.193C0.332,-0.207 0.317,-0.219 0.297,-0.227C0.278,-0.235 0.259,-0.241 0.24,-0.246C0.221,-0.25 0.201,-0.256 0.182,-0.263C0.162,-0.27 0.144,-0.279 0.128,-0.29C0.112,-0.301 0.1,-0.315 0.091,-0.331C0.082,-0.348 0.079,-0.368 0.081,-0.393C0.083,-0.417 0.091,-0.438 0.103,-0.457C0.116,-0.475 0.131,-0.49 0.15,-0.502C0.169,-0.514 0.19,-0.523 0.213,-0.529C0.235,-0.535 0.257,-0.538 0.279,-0.538C0.312,-0.538 0.341,-0.532 0.367,-0.52C0.394,-0.507 0.415,-0.49 0.43,-0.466C0.445,-0.443 0.452,-0.414 0.449,-0.38L0.393,-0.38C0.394,-0.403 0.39,-0.423 0.38,-0.439C0.37,-0.454 0.355,-0.467 0.337,-0.475C0.319,-0.483 0.299,-0.487 0.278,-0.488C0.258,-0.488 0.238,-0.485 0.218,-0.478C0.198,-0.472 0.18,-0.461 0.166,-0.448C0.151,-0.434 0.142,-0.416 0.138,-0.394C0.135,-0.377 0.137,-0.363 0.144,-0.351C0.15,-0.34 0.16,-0.33 0.173,-0.323C0.185,-0.316 0.199,-0.31 0.214,-0.306C0.228,-0.301 0.242,-0.297 0.255,-0.294C0.282,-0.287 0.308,-0.277 0.334,-0.266C0.359,-0.254 0.38,-0.239 0.395,-0.219C0.411,-0.198 0.417,-0.172 0.414,-0.14C0.411,-0.114 0.404,-0.091 0.391,-0.073C0.378,-0.054 0.361,-0.038 0.341,-0.026C0.321,-0.014 0.3,-0.005 0.276,0.001C0.253,0.007 0.23,0.01 0.207,0.01C0.175,0.009 0.144,0.003 0.116,-0.008C0.087,-0.02 0.065,-0.038 0.047,-0.061C0.03,-0.084 0.023,-0.114 0.025,-0.149L0.082,-0.149C0.081,-0.124 0.087,-0.103 0.098,-0.087C0.11,-0.071 0.125,-0.06 0.144,-0.052C0.164,-0.045 0.185,-0.041 0.208,-0.041C0.228,-0.041 0.249,-0.044 0.271,-0.05C0.292,-0.057 0.311,-0.067 0.327,-0.081C0.343,-0.095 0.353,-0.113 0.357,-0.136Z" style="fill:white;fill-rule:nonzero;"/>
                </g>
                <g transform="matrix(50,0,0,50,3504.908628,3632.515987)">
                    <path d="M0.375,-0.105L0.486,-0.75L0.544,-0.75L0.414,-0L0.36,-0L0.375,-0.105ZM0.045,-0.257L0.047,-0.267C0.052,-0.299 0.06,-0.331 0.072,-0.363C0.083,-0.395 0.099,-0.424 0.118,-0.451C0.138,-0.478 0.162,-0.499 0.189,-0.515C0.217,-0.531 0.25,-0.539 0.287,-0.538C0.316,-0.538 0.341,-0.532 0.363,-0.52C0.385,-0.508 0.403,-0.492 0.417,-0.472C0.432,-0.451 0.442,-0.429 0.449,-0.404C0.455,-0.378 0.458,-0.352 0.457,-0.325L0.436,-0.195C0.43,-0.167 0.42,-0.141 0.406,-0.116C0.392,-0.091 0.375,-0.069 0.354,-0.05C0.334,-0.031 0.311,-0.016 0.285,-0.005C0.259,0.005 0.231,0.01 0.202,0.01C0.166,0.009 0.137,0.001 0.115,-0.016C0.093,-0.033 0.076,-0.055 0.064,-0.082C0.053,-0.108 0.046,-0.137 0.044,-0.168C0.041,-0.199 0.042,-0.228 0.045,-0.257ZM0.105,-0.268L0.104,-0.257C0.101,-0.235 0.099,-0.212 0.1,-0.187C0.1,-0.162 0.104,-0.139 0.111,-0.117C0.118,-0.095 0.13,-0.077 0.146,-0.063C0.163,-0.049 0.185,-0.042 0.214,-0.041C0.242,-0.041 0.269,-0.047 0.295,-0.059C0.321,-0.071 0.343,-0.088 0.363,-0.109C0.382,-0.131 0.395,-0.155 0.403,-0.182L0.429,-0.334C0.431,-0.355 0.428,-0.374 0.422,-0.392C0.416,-0.411 0.407,-0.427 0.395,-0.441C0.383,-0.455 0.369,-0.466 0.352,-0.474C0.335,-0.482 0.316,-0.487 0.295,-0.487C0.265,-0.487 0.24,-0.481 0.218,-0.468C0.196,-0.455 0.177,-0.437 0.162,-0.416C0.147,-0.394 0.134,-0.37 0.125,-0.344C0.116,-0.318 0.11,-0.293 0.105,-0.268Z" style="fill:white;fill-rule:nonzero;"/>
                </g>
                <g transform="matrix(50,0,0,50,3551.837339,3632.515987)">
                    <path d="M0.23,0.01C0.194,0.009 0.163,0.002 0.137,-0.013C0.111,-0.027 0.09,-0.047 0.074,-0.072C0.058,-0.096 0.047,-0.124 0.04,-0.154C0.034,-0.185 0.033,-0.216 0.036,-0.249L0.039,-0.27C0.043,-0.302 0.052,-0.335 0.066,-0.367C0.079,-0.399 0.097,-0.428 0.119,-0.453C0.141,-0.479 0.167,-0.5 0.197,-0.516C0.227,-0.531 0.26,-0.539 0.296,-0.538C0.33,-0.538 0.359,-0.531 0.382,-0.517C0.405,-0.503 0.424,-0.484 0.437,-0.461C0.451,-0.438 0.46,-0.412 0.464,-0.384C0.469,-0.355 0.469,-0.326 0.465,-0.296L0.461,-0.26L0.072,-0.26L0.079,-0.31L0.409,-0.31L0.41,-0.317C0.415,-0.344 0.413,-0.371 0.406,-0.397C0.399,-0.423 0.387,-0.445 0.368,-0.462C0.349,-0.479 0.325,-0.487 0.294,-0.488C0.264,-0.488 0.238,-0.482 0.215,-0.469C0.193,-0.456 0.173,-0.439 0.157,-0.417C0.14,-0.396 0.127,-0.372 0.117,-0.346C0.107,-0.321 0.1,-0.295 0.096,-0.27L0.093,-0.249C0.09,-0.225 0.09,-0.2 0.094,-0.176C0.098,-0.152 0.105,-0.129 0.117,-0.109C0.128,-0.089 0.143,-0.072 0.162,-0.06C0.182,-0.047 0.205,-0.041 0.233,-0.04C0.265,-0.04 0.293,-0.046 0.318,-0.059C0.344,-0.072 0.367,-0.09 0.388,-0.112L0.422,-0.083C0.406,-0.063 0.389,-0.046 0.369,-0.032C0.349,-0.018 0.327,-0.007 0.303,-0C0.28,0.007 0.256,0.01 0.23,0.01Z" style="fill:white;fill-rule:nonzero;"/>
                </g>
                <g transform="matrix(50,0,0,50,3628.971128,3632.515987)">
                    <path d="M0.119,-0.528L0.177,-0.528L0.076,0.063C0.071,0.092 0.063,0.118 0.05,0.141C0.037,0.164 0.019,0.182 -0.002,0.195C-0.024,0.208 -0.051,0.214 -0.082,0.214C-0.091,0.214 -0.1,0.213 -0.109,0.211C-0.117,0.209 -0.126,0.207 -0.135,0.205L-0.128,0.156C-0.121,0.158 -0.114,0.159 -0.107,0.161C-0.1,0.162 -0.093,0.163 -0.086,0.163C-0.066,0.163 -0.049,0.159 -0.035,0.15C-0.021,0.141 -0.009,0.128 -0.001,0.113C0.008,0.098 0.014,0.081 0.017,0.063L0.119,-0.528ZM0.136,-0.681C0.136,-0.692 0.141,-0.701 0.148,-0.709C0.156,-0.717 0.166,-0.721 0.177,-0.721C0.188,-0.721 0.197,-0.717 0.205,-0.709C0.212,-0.702 0.215,-0.692 0.215,-0.681C0.214,-0.67 0.21,-0.661 0.202,-0.653C0.194,-0.646 0.184,-0.642 0.173,-0.642C0.162,-0.642 0.153,-0.645 0.146,-0.653C0.138,-0.66 0.135,-0.67 0.136,-0.681Z" style="fill:white;fill-rule:nonzero;"/>
                </g>
                <g transform="matrix(50,0,0,50,3660.030699,3632.515987)">
                    <path d="M0.23,0.01C0.194,0.009 0.163,0.002 0.137,-0.013C0.111,-0.027 0.09,-0.047 0.074,-0.072C0.058,-0.096 0.047,-0.124 0.04,-0.154C0.034,-0.185 0.033,-0.216 0.036,-0.249L0.039,-0.27C0.043,-0.302 0.052,-0.335 0.066,-0.367C0.079,-0.399 0.097,-0.428 0.119,-0.453C0.141,-0.479 0.167,-0.5 0.197,-0.516C0.227,-0.531 0.26,-0.539 0.296,-0.538C0.33,-0.538 0.359,-0.531 0.382,-0.517C0.405,-0.503 0.424,-0.484 0.437,-0.461C0.451,-0.438 0.46,-0.412 0.464,-0.384C0.469,-0.355 0.469,-0.326 0.465,-0.296L0.461,-0.26L0.072,-0.26L0.079,-0.31L0.409,-0.31L0.41,-0.317C0.415,-0.344 0.413,-0.371 0.406,-0.397C0.399,-0.423 0.387,-0.445 0.368,-0.462C0.349,-0.479 0.325,-0.487 0.294,-0.488C0.264,-0.488 0.238,-0.482 0.215,-0.469C0.193,-0.456 0.173,-0.439 0.157,-0.417C0.14,-0.396 0.127,-0.372 0.117,-0.346C0.107,-0.321 0.1,-0.295 0.096,-0.27L0.093,-0.249C0.09,-0.225 0.09,-0.2 0.094,-0.176C0.098,-0.152 0.105,-0.129 0.117,-0.109C0.128,-0.089 0.143,-0.072 0.162,-0.06C0.182,-0.047 0.205,-0.041 0.233,-0.04C0.265,-0.04 0.293,-0.046 0.318,-0.059C0.344,-0.072 0.367,-0.09 0.388,-0.112L0.422,-0.083C0.406,-0.063 0.389,-0.046 0.369,-0.032C0.349,-0.018 0.327,-0.007 0.303,-0C0.28,0.007 0.256,0.01 0.23,0.01Z" style="fill:white;fill-rule:nonzero;"/>
                </g>
                <g transform="matrix(50,0,0,50,3705.103941,3632.515987)">
                    <path d="M0.373,-0.125L0.443,-0.528L0.501,-0.528L0.409,-0L0.354,-0L0.373,-0.125ZM0.399,-0.22L0.429,-0.221C0.424,-0.189 0.415,-0.159 0.403,-0.131C0.391,-0.103 0.376,-0.078 0.357,-0.057C0.337,-0.036 0.314,-0.019 0.287,-0.007C0.26,0.005 0.229,0.01 0.194,0.01C0.164,0.01 0.14,0.004 0.12,-0.007C0.101,-0.018 0.086,-0.033 0.075,-0.051C0.064,-0.07 0.057,-0.091 0.054,-0.115C0.052,-0.139 0.052,-0.164 0.055,-0.19L0.113,-0.528L0.17,-0.528L0.112,-0.189C0.11,-0.171 0.109,-0.153 0.11,-0.136C0.111,-0.118 0.115,-0.103 0.122,-0.089C0.128,-0.075 0.138,-0.063 0.151,-0.055C0.164,-0.046 0.181,-0.042 0.203,-0.042C0.24,-0.041 0.272,-0.048 0.299,-0.064C0.326,-0.079 0.348,-0.1 0.365,-0.128C0.382,-0.155 0.393,-0.185 0.399,-0.22ZM0.365,-0.745L0.461,-0.62L0.461,-0.614L0.409,-0.614L0.346,-0.703L0.25,-0.615L0.198,-0.614L0.198,-0.621L0.329,-0.745L0.365,-0.745Z" style="fill:white;fill-rule:nonzero;"/>
                </g>
                <g transform="matrix(50,0,0,50,3751.739683,3632.515987)">
                    <path d="M0.152,-0.413L0.081,-0L0.023,-0L0.115,-0.528L0.169,-0.528L0.152,-0.413ZM0.12,-0.297L0.097,-0.312C0.104,-0.34 0.113,-0.368 0.127,-0.395C0.14,-0.422 0.157,-0.447 0.177,-0.468C0.197,-0.49 0.22,-0.507 0.246,-0.52C0.273,-0.532 0.302,-0.538 0.334,-0.538C0.363,-0.538 0.387,-0.532 0.406,-0.522C0.425,-0.512 0.44,-0.498 0.45,-0.48C0.461,-0.462 0.467,-0.441 0.47,-0.418C0.473,-0.394 0.472,-0.37 0.469,-0.344L0.411,-0L0.353,-0L0.412,-0.345C0.415,-0.37 0.415,-0.394 0.412,-0.415C0.408,-0.437 0.399,-0.454 0.384,-0.467C0.369,-0.48 0.347,-0.487 0.318,-0.487C0.292,-0.487 0.268,-0.482 0.246,-0.471C0.225,-0.46 0.205,-0.446 0.188,-0.427C0.171,-0.409 0.157,-0.388 0.145,-0.366C0.134,-0.343 0.126,-0.32 0.12,-0.297Z" style="fill:white;fill-rule:nonzero;"/>
                </g>
                <g transform="matrix(50,0,0,50,3798.399839,3632.515987)">
                    <path d="M0.23,0.01C0.194,0.009 0.163,0.002 0.137,-0.013C0.111,-0.027 0.09,-0.047 0.074,-0.072C0.058,-0.096 0.047,-0.124 0.04,-0.154C0.034,-0.185 0.033,-0.216 0.036,-0.249L0.039,-0.27C0.043,-0.302 0.052,-0.335 0.066,-0.367C0.079,-0.399 0.097,-0.428 0.119,-0.453C0.141,-0.479 0.167,-0.5 0.197,-0.516C0.227,-0.531 0.26,-0.539 0.296,-0.538C0.33,-0.538 0.359,-0.531 0.382,-0.517C0.405,-0.503 0.424,-0.484 0.437,-0.461C0.451,-0.438 0.46,-0.412 0.464,-0.384C0.469,-0.355 0.469,-0.326 0.465,-0.296L0.461,-0.26L0.072,-0.26L0.079,-0.31L0.409,-0.31L0.41,-0.317C0.415,-0.344 0.413,-0.371 0.406,-0.397C0.399,-0.423 0.387,-0.445 0.368,-0.462C0.349,-0.479 0.325,-0.487 0.294,-0.488C0.264,-0.488 0.238,-0.482 0.215,-0.469C0.193,-0.456 0.173,-0.439 0.157,-0.417C0.14,-0.396 0.127,-0.372 0.117,-0.346C0.107,-0.321 0.1,-0.295 0.096,-0.27L0.093,-0.249C0.09,-0.225 0.09,-0.2 0.094,-0.176C0.098,-0.152 0.105,-0.129 0.117,-0.109C0.128,-0.089 0.143,-0.072 0.162,-0.06C0.182,-0.047 0.205,-0.041 0.233,-0.04C0.265,-0.04 0.293,-0.046 0.318,-0.059C0.344,-0.072 0.367,-0.09 0.388,-0.112L0.422,-0.083C0.406,-0.063 0.389,-0.046 0.369,-0.032C0.349,-0.018 0.327,-0.007 0.303,-0C0.28,0.007 0.256,0.01 0.23,0.01Z" style="fill:white;fill-rule:nonzero;"/>
                </g>
                <g transform="matrix(50,0,0,50,3875.533628,3632.515987)">
                    <path d="M0.23,0.01C0.194,0.009 0.163,0.002 0.137,-0.013C0.111,-0.027 0.09,-0.047 0.074,-0.072C0.058,-0.096 0.047,-0.124 0.04,-0.154C0.034,-0.185 0.033,-0.216 0.036,-0.249L0.039,-0.27C0.043,-0.302 0.052,-0.335 0.066,-0.367C0.079,-0.399 0.097,-0.428 0.119,-0.453C0.141,-0.479 0.167,-0.5 0.197,-0.516C0.227,-0.531 0.26,-0.539 0.296,-0.538C0.33,-0.538 0.359,-0.531 0.382,-0.517C0.405,-0.503 0.424,-0.484 0.437,-0.461C0.451,-0.438 0.46,-0.412 0.464,-0.384C0.469,-0.355 0.469,-0.326 0.465,-0.296L0.461,-0.26L0.072,-0.26L0.079,-0.31L0.409,-0.31L0.41,-0.317C0.415,-0.344 0.413,-0.371 0.406,-0.397C0.399,-0.423 0.387,-0.445 0.368,-0.462C0.349,-0.479 0.325,-0.487 0.294,-0.488C0.264,-0.488 0.238,-0.482 0.215,-0.469C0.193,-0.456 0.173,-0.439 0.157,-0.417C0.14,-0.396 0.127,-0.372 0.117,-0.346C0.107,-0.321 0.1,-0.295 0.096,-0.27L0.093,-0.249C0.09,-0.225 0.09,-0.2 0.094,-0.176C0.098,-0.152 0.105,-0.129 0.117,-0.109C0.128,-0.089 0.143,-0.072 0.162,-0.06C0.182,-0.047 0.205,-0.041 0.233,-0.04C0.265,-0.04 0.293,-0.046 0.318,-0.059C0.344,-0.072 0.367,-0.09 0.388,-0.112L0.422,-0.083C0.406,-0.063 0.389,-0.046 0.369,-0.032C0.349,-0.018 0.327,-0.007 0.303,-0C0.28,0.007 0.256,0.01 0.23,0.01Z" style="fill:white;fill-rule:nonzero;"/>
                </g>
                <g transform="matrix(50,0,0,50,3920.606871,3632.515987)">
                    <path d="M0.309,-0.528L0.302,-0.48L0.043,-0.48L0.052,-0.528L0.309,-0.528ZM0.169,-0.664L0.227,-0.664L0.135,-0.128C0.133,-0.114 0.133,-0.1 0.134,-0.088C0.135,-0.075 0.139,-0.064 0.147,-0.056C0.154,-0.047 0.166,-0.043 0.183,-0.043C0.191,-0.043 0.2,-0.043 0.207,-0.044C0.215,-0.045 0.223,-0.046 0.231,-0.047L0.229,0.002C0.219,0.005 0.209,0.007 0.199,0.008C0.189,0.009 0.18,0.009 0.17,0.009C0.142,0.009 0.122,0.002 0.107,-0.011C0.093,-0.024 0.084,-0.041 0.08,-0.062C0.076,-0.083 0.075,-0.105 0.078,-0.129L0.169,-0.664Z" style="fill:white;fill-rule:nonzero;"/>
                </g>
                <g transform="matrix(50,0,0,50,3988.268003,3632.515987)">
                    <path d="M0.154,-0.424L0.045,0.203L-0.013,0.203L0.114,-0.528L0.167,-0.528L0.154,-0.424ZM0.482,-0.271L0.481,-0.26C0.476,-0.229 0.468,-0.197 0.457,-0.165C0.445,-0.133 0.43,-0.104 0.41,-0.078C0.391,-0.051 0.368,-0.03 0.34,-0.013C0.313,0.003 0.281,0.01 0.244,0.01C0.216,0.01 0.191,0.004 0.169,-0.006C0.147,-0.017 0.128,-0.031 0.112,-0.05C0.096,-0.068 0.084,-0.089 0.077,-0.113C0.069,-0.137 0.066,-0.163 0.067,-0.19L0.089,-0.325C0.095,-0.353 0.105,-0.38 0.12,-0.406C0.134,-0.431 0.151,-0.454 0.172,-0.475C0.192,-0.495 0.215,-0.511 0.242,-0.522C0.268,-0.533 0.296,-0.539 0.327,-0.538C0.363,-0.538 0.393,-0.529 0.415,-0.512C0.438,-0.496 0.454,-0.474 0.465,-0.448C0.476,-0.421 0.483,-0.392 0.485,-0.361C0.487,-0.33 0.486,-0.3 0.482,-0.271ZM0.423,-0.26L0.425,-0.271C0.428,-0.293 0.429,-0.316 0.429,-0.341C0.428,-0.366 0.424,-0.39 0.417,-0.411C0.409,-0.433 0.397,-0.451 0.381,-0.465C0.364,-0.48 0.341,-0.487 0.312,-0.487C0.29,-0.487 0.269,-0.484 0.248,-0.476C0.228,-0.468 0.209,-0.457 0.193,-0.443C0.176,-0.429 0.161,-0.412 0.149,-0.394C0.137,-0.375 0.128,-0.355 0.122,-0.334L0.095,-0.178C0.094,-0.151 0.1,-0.128 0.112,-0.107C0.125,-0.087 0.142,-0.07 0.163,-0.058C0.185,-0.047 0.208,-0.041 0.233,-0.04C0.263,-0.04 0.289,-0.046 0.311,-0.06C0.333,-0.073 0.351,-0.09 0.366,-0.112C0.382,-0.134 0.394,-0.158 0.403,-0.184C0.412,-0.21 0.419,-0.235 0.423,-0.26Z" style="fill:white;fill-rule:nonzero;"/>
                </g>
                <g transform="matrix(50,0,0,50,4035.147886,3632.515987)">
                    <path d="M0.156,-0.439L0.081,-0L0.023,-0L0.115,-0.528L0.171,-0.528L0.156,-0.439ZM0.352,-0.532L0.345,-0.479C0.339,-0.48 0.333,-0.481 0.327,-0.481C0.32,-0.482 0.314,-0.482 0.308,-0.482C0.282,-0.483 0.259,-0.478 0.238,-0.468C0.218,-0.457 0.2,-0.444 0.185,-0.427C0.17,-0.409 0.157,-0.39 0.147,-0.368C0.137,-0.347 0.129,-0.325 0.124,-0.302L0.101,-0.294C0.106,-0.322 0.113,-0.351 0.123,-0.38C0.133,-0.409 0.146,-0.435 0.163,-0.459C0.18,-0.484 0.2,-0.503 0.225,-0.518C0.249,-0.532 0.279,-0.539 0.312,-0.539C0.319,-0.539 0.326,-0.538 0.332,-0.537C0.339,-0.536 0.346,-0.534 0.352,-0.532Z" style="fill:white;fill-rule:nonzero;"/>
                </g>
                <g transform="matrix(50,0,0,50,4071.45648,3632.515987)">
                    <path d="M0.179,-0.528L0.087,-0L0.03,-0L0.121,-0.528L0.179,-0.528ZM0.138,-0.681C0.138,-0.692 0.143,-0.701 0.15,-0.709C0.158,-0.717 0.168,-0.721 0.179,-0.721C0.19,-0.721 0.199,-0.717 0.207,-0.709C0.214,-0.702 0.217,-0.692 0.217,-0.681C0.216,-0.67 0.212,-0.661 0.204,-0.654C0.196,-0.646 0.186,-0.642 0.175,-0.642C0.164,-0.642 0.155,-0.645 0.148,-0.653C0.141,-0.66 0.137,-0.67 0.138,-0.681Z" style="fill:white;fill-rule:nonzero;"/>
                </g>
                <g transform="matrix(50,0,0,50,4102.345152,3632.515987)">
                    <path d="M0.23,0.01C0.194,0.009 0.163,0.002 0.137,-0.013C0.111,-0.027 0.09,-0.047 0.074,-0.072C0.058,-0.096 0.047,-0.124 0.04,-0.154C0.034,-0.185 0.033,-0.216 0.036,-0.249L0.039,-0.27C0.043,-0.302 0.052,-0.335 0.066,-0.367C0.079,-0.399 0.097,-0.428 0.119,-0.453C0.141,-0.479 0.167,-0.5 0.197,-0.516C0.227,-0.531 0.26,-0.539 0.296,-0.538C0.33,-0.538 0.359,-0.531 0.382,-0.517C0.405,-0.503 0.424,-0.484 0.437,-0.461C0.451,-0.438 0.46,-0.412 0.464,-0.384C0.469,-0.355 0.469,-0.326 0.465,-0.296L0.461,-0.26L0.072,-0.26L0.079,-0.31L0.409,-0.31L0.41,-0.317C0.415,-0.344 0.413,-0.371 0.406,-0.397C0.399,-0.423 0.387,-0.445 0.368,-0.462C0.349,-0.479 0.325,-0.487 0.294,-0.488C0.264,-0.488 0.238,-0.482 0.215,-0.469C0.193,-0.456 0.173,-0.439 0.157,-0.417C0.14,-0.396 0.127,-0.372 0.117,-0.346C0.107,-0.321 0.1,-0.295 0.096,-0.27L0.093,-0.249C0.09,-0.225 0.09,-0.2 0.094,-0.176C0.098,-0.152 0.105,-0.129 0.117,-0.109C0.128,-0.089 0.143,-0.072 0.162,-0.06C0.182,-0.047 0.205,-0.041 0.233,-0.04C0.265,-0.04 0.293,-0.046 0.318,-0.059C0.344,-0.072 0.367,-0.09 0.388,-0.112L0.422,-0.083C0.406,-0.063 0.389,-0.046 0.369,-0.032C0.349,-0.018 0.327,-0.007 0.303,-0C0.28,0.007 0.256,0.01 0.23,0.01ZM0.282,-0.75L0.352,-0.613L0.304,-0.613L0.217,-0.75L0.282,-0.75Z" style="fill:white;fill-rule:nonzero;"/>
                </g>
                <g transform="matrix(50,0,0,50,4147.418394,3632.515987)">
                    <path d="M0.156,-0.439L0.081,-0L0.023,-0L0.115,-0.528L0.171,-0.528L0.156,-0.439ZM0.352,-0.532L0.345,-0.479C0.339,-0.48 0.333,-0.481 0.327,-0.481C0.32,-0.482 0.314,-0.482 0.308,-0.482C0.282,-0.483 0.259,-0.478 0.238,-0.468C0.218,-0.457 0.2,-0.444 0.185,-0.427C0.17,-0.409 0.157,-0.39 0.147,-0.368C0.137,-0.347 0.129,-0.325 0.124,-0.302L0.101,-0.294C0.106,-0.322 0.113,-0.351 0.123,-0.38C0.133,-0.409 0.146,-0.435 0.163,-0.459C0.18,-0.484 0.2,-0.503 0.225,-0.518C0.249,-0.532 0.279,-0.539 0.312,-0.539C0.319,-0.539 0.326,-0.538 0.332,-0.537C0.339,-0.536 0.346,-0.534 0.352,-0.532Z" style="fill:white;fill-rule:nonzero;"/>
                </g>
                <g transform="matrix(50,0,0,50,4183.263121,3632.515987)">
                    <path d="M0.23,0.01C0.194,0.009 0.163,0.002 0.137,-0.013C0.111,-0.027 0.09,-0.047 0.074,-0.072C0.058,-0.096 0.047,-0.124 0.04,-0.154C0.034,-0.185 0.033,-0.216 0.036,-0.249L0.039,-0.27C0.043,-0.302 0.052,-0.335 0.066,-0.367C0.079,-0.399 0.097,-0.428 0.119,-0.453C0.141,-0.479 0.167,-0.5 0.197,-0.516C0.227,-0.531 0.26,-0.539 0.296,-0.538C0.33,-0.538 0.359,-0.531 0.382,-0.517C0.405,-0.503 0.424,-0.484 0.437,-0.461C0.451,-0.438 0.46,-0.412 0.464,-0.384C0.469,-0.355 0.469,-0.326 0.465,-0.296L0.461,-0.26L0.072,-0.26L0.079,-0.31L0.409,-0.31L0.41,-0.317C0.415,-0.344 0.413,-0.371 0.406,-0.397C0.399,-0.423 0.387,-0.445 0.368,-0.462C0.349,-0.479 0.325,-0.487 0.294,-0.488C0.264,-0.488 0.238,-0.482 0.215,-0.469C0.193,-0.456 0.173,-0.439 0.157,-0.417C0.14,-0.396 0.127,-0.372 0.117,-0.346C0.107,-0.321 0.1,-0.295 0.096,-0.27L0.093,-0.249C0.09,-0.225 0.09,-0.2 0.094,-0.176C0.098,-0.152 0.105,-0.129 0.117,-0.109C0.128,-0.089 0.143,-0.072 0.162,-0.06C0.182,-0.047 0.205,-0.041 0.233,-0.04C0.265,-0.04 0.293,-0.046 0.318,-0.059C0.344,-0.072 0.367,-0.09 0.388,-0.112L0.422,-0.083C0.406,-0.063 0.389,-0.046 0.369,-0.032C0.349,-0.018 0.327,-0.007 0.303,-0C0.28,0.007 0.256,0.01 0.23,0.01Z" style="fill:white;fill-rule:nonzero;"/>
                </g>
                <g transform="matrix(50,0,0,50,4228.336363,3632.515987)">
                    <path d="M0.357,-0.136C0.361,-0.16 0.357,-0.179 0.345,-0.193C0.332,-0.207 0.317,-0.219 0.297,-0.227C0.278,-0.235 0.259,-0.241 0.24,-0.246C0.221,-0.25 0.201,-0.256 0.182,-0.263C0.162,-0.27 0.144,-0.279 0.128,-0.29C0.112,-0.301 0.1,-0.315 0.091,-0.331C0.082,-0.348 0.079,-0.368 0.081,-0.393C0.083,-0.417 0.091,-0.438 0.103,-0.457C0.116,-0.475 0.131,-0.49 0.15,-0.502C0.169,-0.514 0.19,-0.523 0.213,-0.529C0.235,-0.535 0.257,-0.538 0.279,-0.538C0.312,-0.538 0.341,-0.532 0.367,-0.52C0.394,-0.507 0.415,-0.49 0.43,-0.466C0.445,-0.443 0.452,-0.414 0.449,-0.38L0.393,-0.38C0.394,-0.403 0.39,-0.423 0.38,-0.439C0.37,-0.454 0.355,-0.467 0.337,-0.475C0.319,-0.483 0.299,-0.487 0.278,-0.488C0.258,-0.488 0.238,-0.485 0.218,-0.478C0.198,-0.472 0.18,-0.461 0.166,-0.448C0.151,-0.434 0.142,-0.416 0.138,-0.394C0.135,-0.377 0.137,-0.363 0.144,-0.351C0.15,-0.34 0.16,-0.33 0.173,-0.323C0.185,-0.316 0.199,-0.31 0.214,-0.306C0.228,-0.301 0.242,-0.297 0.255,-0.294C0.282,-0.287 0.308,-0.277 0.334,-0.266C0.359,-0.254 0.38,-0.239 0.395,-0.219C0.411,-0.198 0.417,-0.172 0.414,-0.14C0.411,-0.114 0.404,-0.091 0.391,-0.073C0.378,-0.054 0.361,-0.038 0.341,-0.026C0.321,-0.014 0.3,-0.005 0.276,0.001C0.253,0.007 0.23,0.01 0.207,0.01C0.175,0.009 0.144,0.003 0.116,-0.008C0.087,-0.02 0.065,-0.038 0.047,-0.061C0.03,-0.084 0.023,-0.114 0.025,-0.149L0.082,-0.149C0.081,-0.124 0.087,-0.103 0.098,-0.087C0.11,-0.071 0.125,-0.06 0.144,-0.052C0.164,-0.045 0.185,-0.041 0.208,-0.041C0.228,-0.041 0.249,-0.044 0.271,-0.05C0.292,-0.057 0.311,-0.067 0.327,-0.081C0.343,-0.095 0.353,-0.113 0.357,-0.136Z" style="fill:white;fill-rule:nonzero;"/>
                </g>
            </g>
        </g>
    </g>
</svg>
